
<svg id="Layer_1" data-name="Layer 1" xmlns="http://www.w3.org/2000/svg" viewBox="0 0 1023.72 553.74"><defs><style>.cls-1{fill:#98c8d3;}.cls-2,.cls-3{fill:#fed626;}.cls-2{stroke:#febb12;stroke-miterlimit:10;stroke-width:0.25px;}.cls-4{opacity:0;}.cls-5{fill:#fff;}</style></defs><path class="cls-1" d="M1118.29,505h-56.45V453.67h56.45Zm-56.45,25.39h56.45V743.31h-56.45Z" transform="translate(-95.02 -318.44)"/><path class="cls-1" d="M867.35,575.74V530.42h168.36v46.29L931.25,697.61h108.17v45.7H859.93V700L965.46,575.74Z" transform="translate(-95.02 -318.44)"/><path class="cls-1" d="M675.75,575.74V530.42H844.11v46.29L739.65,697.61H847.82v45.7H668.33V700L773.86,575.74Z" transform="translate(-95.02 -318.44)"/><path class="cls-1" d="M645.35,505H588.91V453.67h56.44Zm-56.44,25.39h56.44V743.31H588.91Z" transform="translate(-95.02 -318.44)"/><path class="cls-1" d="M553.41,452.79q4.29.29,11.72.88V499q-4.7-.59-15.72-.88c-7.36-.2-12.44,1.44-15.24,4.88a17.72,17.72,0,0,0-4.2,11.43v18H566.5v39.25H530V743.31H474.7V571.63H443.45V532.38h30.47V518.71q0-34.19,11.52-47.08,12.1-19.12,58.4-19.14Q549.12,452.49,553.41,452.79Z" transform="translate(-95.02 -318.44)"/><path class="cls-1" d="M418.61,452.79q4.29.29,11.72.88V499q-4.69-.59-15.73-.88c-7.35-.2-12.43,1.44-15.23,4.88a17.72,17.72,0,0,0-4.2,11.43v18h36.52v39.25H395.17V743.31H339.9V571.63H308.65V532.38h30.47V518.71q0-34.19,11.52-47.08,12.11-19.12,58.4-19.14Q414.31,452.49,418.61,452.79Z" transform="translate(-95.02 -318.44)"/><path class="cls-1" d="M152.05,530.42V658.74q0,18.16,4.28,27.35,7.57,16.21,29.73,16.21,28.38,0,38.87-23,5.44-12.5,5.45-33V530.42h56.44V743.31h-54.1V713.24q-.78,1-3.9,5.86a38.89,38.89,0,0,1-7.4,8.59q-13,11.71-25.22,16T167.67,748q-47.13,0-63.49-34Q95,695.27,95,658.74V530.42Z" transform="translate(-95.02 -318.44)"/><rect class="cls-2" x="9.98" y="140.56" width="170" height="35"/><path class="cls-3" d="M861.2,872.18V791.33h21q11.72,0,18.3,5.17t6.59,15.17q0,12.89-10.83,18,8.68,1.32,13.33,6.52t4.66,13.67a22.18,22.18,0,0,1-3.14,12,20.21,20.21,0,0,1-8.94,7.66,32.78,32.78,0,0,1-13.79,2.67ZM874,825.39h5.39q7.39,0,11.37-3.14t4-9q0-5.88-3.92-8.9t-11.42-3H874Zm0,36.7h10.19c5.46,0,9.6-1.08,12.45-3.23s4.26-5.28,4.26-9.36-1.45-7.35-4.36-9.61-7-3.38-12.35-3.38H874Z" transform="translate(-95.02 -318.44)"/><path class="cls-3" d="M929.5,872.18V791.33H973V802.6H942.34V826h29.45V837.3H942.34v23.61H973v11.27Z" transform="translate(-95.02 -318.44)"/><path class="cls-3" d="M1006.58,872.18V802.75h-22V791.33h56.84v11.42h-22.05v69.43Z" transform="translate(-95.02 -318.44)"/><path class="cls-3" d="M1042.4,872.18l32.19-80.85h11.91l32.24,80.85h-13.82L1097,851.11h-32.83l-8,21.07Zm26.12-32.34h24.11l-12.11-31.26Z" transform="translate(-95.02 -318.44)"/><g class="cls-4"><path class="cls-5" d="M861.2,399.29V318.44h21q11.72,0,18.3,5.17t6.59,15.17q0,12.89-10.83,18,8.68,1.32,13.33,6.52T914.22,377a22.18,22.18,0,0,1-3.14,12,20.21,20.21,0,0,1-8.94,7.66,32.78,32.78,0,0,1-13.79,2.67ZM874,352.5h5.39q7.39,0,11.37-3.14t4-9q0-5.88-3.92-8.9t-11.42-3H874Zm0,36.7h10.19c5.46,0,9.6-1.08,12.45-3.23s4.26-5.28,4.26-9.36-1.45-7.35-4.36-9.61-7-3.38-12.35-3.38H874Z" transform="translate(-95.02 -318.44)"/><path class="cls-5" d="M929.5,399.29V318.44H973v11.27H942.34v23.43h29.45v11.27H942.34V388H973v11.27Z" transform="translate(-95.02 -318.44)"/><path class="cls-5" d="M1006.58,399.29V329.86h-22V318.44h56.84v11.42h-22.05v69.43Z" transform="translate(-95.02 -318.44)"/><path class="cls-5" d="M1042.4,399.29l32.19-80.85h11.91l32.24,80.85h-13.82L1097,378.22h-32.83l-8,21.07ZM1068.52,367h24.11l-12.11-31.26Z" transform="translate(-95.02 -318.44)"/></g></svg>